<?xml version="1.0" encoding="iso-8859-1"?>
<!-- Generator: Adobe Illustrator 18.0.0, SVG Export Plug-In . SVG Version: 6.00 Build 0)  -->
<!DOCTYPE svg PUBLIC "-//W3C//DTD SVG 1.1//EN" "http://www.w3.org/Graphics/SVG/1.1/DTD/svg11.dtd">
<svg xmlns="http://www.w3.org/2000/svg" xmlns:xlink="http://www.w3.org/1999/xlink" version="1.1" id="Capa_1" x="0px" y="0px" viewBox="0 0 181.028 181.028" style="enable-background:new 0 0 181.028 181.028;" xml:space="preserve" width="512px" height="512px">
<g>
	<path d="M179.838,52.732c-1.498-3.183-4.287-5.607-7.65-6.65c-26.531-8.229-53.999-12.4-81.643-12.4   c-27.667,0-55.157,4.179-81.708,12.42c-3.348,1.04-6.129,3.449-7.63,6.61c-1.496,3.15-1.606,6.812-0.303,10.046   c6.379,15.828,22.05,54.631,29.778,73.043c2.971,7.078,9.859,11.545,17.357,11.544c0.941,0,1.894-0.07,2.848-0.215   c26.016-3.943,52.99-3.959,79.011-0.046c8.609,1.293,16.945-3.418,20.254-11.464l29.937-72.791   C181.423,59.586,181.332,55.906,179.838,52.732z M170.841,59.026l-29.937,72.792c-1.553,3.775-5.462,5.988-9.519,5.378   c-27.006-4.062-54.996-4.045-81.996,0.048c-4.012,0.608-7.918-1.575-9.486-5.313C32.2,113.579,16.551,74.829,10.18,59.02   c-0.358-0.89-0.116-1.646,0.061-2.019c0.18-0.378,0.622-1.057,1.562-1.349c25.59-7.943,52.082-11.971,78.743-11.971   c26.638,0,53.109,4.021,78.681,11.952c0.943,0.292,1.385,0.976,1.564,1.357C170.967,57.366,171.209,58.131,170.841,59.026z" fill="#FFFFFF"/>
	<path d="M111.775,78.728h-9.495v-9.495c0-1.657-1.343-3-3-3H81.694c-1.657,0-3,1.343-3,3v9.495h-9.495c-1.657,0-3,1.343-3,3v17.586   c0,1.657,1.343,3,3,3h9.495v9.495c0,1.657,1.343,3,3,3H99.28c1.657,0,3-1.343,3-3v-9.495h9.495c1.657,0,3-1.343,3-3V81.728   C114.775,80.072,113.433,78.728,111.775,78.728z M108.775,96.314H99.28c-1.657,0-3,1.343-3,3v9.495H84.694v-9.495   c0-1.657-1.343-3-3-3h-9.495V84.728h9.495c1.657,0,3-1.343,3-3v-9.495H96.28v9.495c0,1.657,1.343,3,3,3h9.495V96.314z" fill="#FFFFFF"/>
</g>
<g>
</g>
<g>
</g>
<g>
</g>
<g>
</g>
<g>
</g>
<g>
</g>
<g>
</g>
<g>
</g>
<g>
</g>
<g>
</g>
<g>
</g>
<g>
</g>
<g>
</g>
<g>
</g>
<g>
</g>
</svg>
